Coordinates
version=1
nRows=16
nColumns=40
inDegrees=yes

Units are S.I. units (second, meters, Newtons, ...)
If the header above contains a line with 'inDegrees', this indicates whether rotational values are in degrees (yes) or radians (no).

endheader
time	pelvis_tilt	pelvis_list	pelvis_rotation	pelvis_tx	pelvis_ty	pelvis_tz	hip_flexion_r	hip_adduction_r	hip_rotation_r	knee_angle_r	knee_angle_r_beta	ankle_angle_r	subtalar_angle_r	mtp_angle_r	hip_flexion_l	hip_adduction_l	hip_rotation_l	knee_angle_l	knee_angle_l_beta	ankle_angle_l	subtalar_angle_l	mtp_angle_l	lumbar_extension	lumbar_bending	lumbar_rotation	arm_flex_r	arm_add_r	arm_rot_r	elbow_flex_r	pro_sup_r	wrist_flex_r	wrist_dev_r	arm_flex_l	arm_add_l	arm_rot_l	elbow_flex_l	pro_sup_l	wrist_flex_l	wrist_dev_l
      4.15000000	     -0.59487099	     -2.99473435	      0.62496173	     -0.38750815	      0.85701660	     -0.99454454	     66.96726419	     -4.30207421	      0.46715801	     37.82147716	      0.66010930	     10.88771558	      0.00000000	      0.00000000	     46.73034752	     -3.81565984	     -4.15332441	     78.95106877	      1.37795610	     20.10384011	      0.00000000	      0.00000000	    -18.04991805	     -2.56229994	     -4.94660221	     89.91509459	     -2.07105518	     41.60931352	     44.60875321	     84.03502348	      0.00000000	      0.00000000	     89.94596458	    -13.70655532	     42.02580641	     53.52426103	     80.14565616	      0.00000000	      0.00000000
      4.15500000	     -0.63441941	     -3.01185035	      0.60937019	     -0.38749980	      0.85654735	     -0.99458818	     67.04053592	     -4.29495477	      0.46026599	     37.85514493	      0.66069692	     10.87845477	      0.00000000	      0.00000000	     46.82504608	     -3.80857576	     -4.10815211	     79.04555471	      1.37960519	     20.11976522	      0.00000000	      0.00000000	    -18.00222283	     -2.52926676	     -4.93509370	     89.91505975	     -2.05017896	     41.55937570	     44.57792671	     84.36230971	      0.00000000	      0.00000000	     89.94592976	    -13.72712303	     42.05597831	     53.57605018	     79.47784319	      0.00000000	      0.00000000
      4.16000000	     -0.60577529	     -3.01583086	      0.57187584	     -0.38744057	      0.85623243	     -0.99462899	     67.02516624	     -4.27024612	      0.46491593	     37.86895823	      0.66093801	     10.85575532	      0.00000000	      0.00000000	     46.81986124	     -3.82064292	     -4.11805663	     79.12137364	      1.38092848	     20.20636135	      0.00000000	      0.00000000	    -18.03500112	     -2.53272219	     -4.90081700	     89.91546703	     -2.08367851	     41.53902051	     44.66458241	     84.11724598	      0.00000000	      0.00000000	     89.94588536	    -13.70224061	     41.97791095	     53.55454931	     80.62490006	      0.00000000	      0.00000000
      4.16500000	     -0.54523036	     -3.02184571	      0.55744972	     -0.38735925	      0.85584898	     -0.99465255	     66.99129132	     -4.26931104	      0.42364358	     37.90517179	      0.66157005	     10.91911013	      0.00000000	      0.00000000	     46.78918173	     -3.80383909	     -4.07668886	     79.22286752	      1.38269988	     20.32578025	      0.00000000	      0.00000000	    -18.08200635	     -2.50760531	     -4.89256632	     89.91546434	     -2.05583997	     41.48254610	     44.65014508	     84.30247859	      0.00000000	      0.00000000	     89.94610775	    -13.73804144	     41.99372452	     53.61189227	     79.71822466	      0.00000000	      0.00000000
      4.17000000	     -0.53296633	     -3.02670589	      0.50802768	     -0.38733355	      0.85540629	     -0.99458632	     67.01031043	     -4.23216305	      0.43991843	     37.94598955	      0.66228246	     10.83243232	      0.00000000	      0.00000000	     46.81961305	     -3.84121990	     -4.09210084	     79.30880680	      1.38419980	     20.33339575	      0.00000000	      0.00000000	    -18.09281954	     -2.53088193	     -4.84798200	     89.91594047	     -2.10951990	     41.45772630	     44.72343966	     84.38045006	      0.00000000	      0.00000000	     89.94616373	    -13.69321678	     41.94487582	     53.60612785	     79.51116547	      0.00000000	      0.00000000
      4.17500000	     -0.55888105	     -3.04888293	      0.46098450	     -0.38731019	      0.85492773	     -0.99458590	     67.07242379	     -4.19397620	      0.39522516	     37.98095259	      0.66289268	     10.89288520	      0.00000000	      0.00000000	     46.89145588	     -3.86652435	     -4.07684741	     79.40621967	      1.38589998	     20.39119608	      0.00000000	      0.00000000	    -18.04246763	     -2.51430650	     -4.76884924	     89.91621433	     -2.21790782	     41.71458843	     44.86642070	     82.89334193	      0.00000000	      0.00000000	     89.94632942	    -13.66970490	     42.01140568	     53.61986959	     78.75194744	      0.00000000	      0.00000000
      4.18000000	     -0.62250756	     -3.03305044	      0.44624593	     -0.38731620	      0.85437075	     -0.99458701	     67.18862192	     -4.19522433	      0.47267735	     38.05874316	      0.66425038	     10.78217554	      0.00000000	      0.00000000	     47.01171133	     -3.83452439	     -4.04918708	     79.50823389	      1.38768046	     20.47450343	      0.00000000	      0.00000000	    -17.96989497	     -2.51045993	     -4.79731218	     89.91605300	     -2.06790675	     41.40388424	     44.70151575	     84.33347842	      0.00000000	      0.00000000	     89.94632998	    -13.71641282	     41.94271891	     53.60681891	     79.76792310	      0.00000000	      0.00000000
      4.18500000	     -0.64688123	     -3.05414098	      0.40719652	     -0.38731900	      0.85390810	     -0.99458127	     67.24605394	     -4.16862196	      0.42849854	     38.08894104	      0.66477743	     10.78478033	      0.00000000	      0.00000000	     47.08205482	     -3.87410836	     -4.05739823	     79.60086253	      1.38929714	     20.53807601	      0.00000000	      0.00000000	    -17.94432824	     -2.49583208	     -4.76543741	     89.91633407	     -2.09598790	     41.37572427	     44.74678037	     84.28961223	      0.00000000	      0.00000000	     89.94627020	    -13.72057842	     41.98031606	     53.64728037	     79.35001467	      0.00000000	      0.00000000
      4.19000000	     -0.64349962	     -3.03981181	      0.39778508	     -0.38732132	      0.85350557	     -0.99464741	     67.26901757	     -4.17967955	      0.43320596	     38.10825239	      0.66511448	     10.81595033	      0.00000000	      0.00000000	     47.11741132	     -3.82600663	     -4.01370538	     79.67254668	      1.39054826	     20.58613754	      0.00000000	      0.00000000	    -17.94327481	     -2.50600915	     -4.79594600	     89.91650012	     -2.05191251	     41.39780409	     44.72062553	     83.72168552	      0.00000000	      0.00000000	     89.94636287	    -13.72478747	     41.79864312	     53.60066825	     81.43042373	      0.00000000	      0.00000000
      4.19500000	     -0.61394183	     -3.02882858	      0.36731734	     -0.38730377	      0.85314986	     -0.99469642	     67.29649954	     -4.18293550	      0.36969563	     38.20643639	      0.66682811	     10.85652222	      0.00000000	      0.00000000	     47.11271324	     -3.82241774	     -4.02630878	     79.73459784	      1.39163126	     20.61778507	      0.00000000	      0.00000000	    -17.97209153	     -2.51725920	     -4.77285763	     89.91677104	     -2.06425436	     41.36446670	     44.74226497	     83.76129003	      0.00000000	      0.00000000	     89.94632856	    -13.71959018	     41.77896146	     53.62664291	     81.32550934	      0.00000000	      0.00000000
      4.20000000	     -0.59284191	     -3.03107380	      0.30418855	     -0.38730472	      0.85279057	     -0.99468463	     67.32682381	     -4.14690728	      0.33503982	     38.28822037	      0.66825551	     10.86660366	      0.00000000	      0.00000000	     47.11843974	     -3.87844814	     -4.08530750	     79.82253173	      1.39316600	     20.71871092	      0.00000000	      0.00000000	    -17.99256536	     -2.51469809	     -4.73544443	     89.91755197	     -2.05314119	     41.69294817	     44.83604769	     79.33687125	      0.00000000	      0.00000000	     89.94633776	    -13.78142476	     41.87512701	     53.82571904	     77.12993038	      0.00000000	      0.00000000
      4.20500000	     -0.63569634	     -3.02359379	      0.25918010	     -0.38722153	      0.85222068	     -0.99465615	     67.43442500	     -4.12759623	      0.34860250	     38.38113708	      0.66987721	     10.88106989	      0.00000000	      0.00000000	     47.20591417	     -3.87774188	     -4.07976145	     79.92134307	      1.39489058	     20.74742795	      0.00000000	      0.00000000	    -17.93157767	     -2.54305809	     -4.65195446	     89.91702159	     -2.13684572	     41.31632839	     44.78264115	     84.29888778	      0.00000000	      0.00000000	     89.94659181	    -13.65477837	     41.72874684	     53.67159818	     79.10323961	      0.00000000	      0.00000000
      4.21000000	     -0.64867904	     -2.98500948	      0.21299418	     -0.38717906	      0.85184600	     -0.99464779	     67.49905592	     -4.11212732	      0.39291256	     38.45577290	      0.67117985	     10.89536350	      0.00000000	      0.00000000	     47.24473854	     -3.87280373	     -4.12422389	     79.98449554	      1.39599280	     20.78817195	      0.00000000	      0.00000000	    -17.91751817	     -2.57192221	     -4.67229314	     89.91710265	     -2.03553028	     41.23505996	     44.75872373	     84.45075146	      0.00000000	      0.00000000	     89.94642744	    -13.75328763	     41.76111862	     53.76275348	     78.82704765	      0.00000000	      0.00000000
      4.21500000	     -0.66074533	     -2.97408253	      0.16739243	     -0.38722356	      0.85148455	     -0.99457948	     67.58590315	     -4.09892506	      0.34760491	     38.57101065	      0.67319113	     10.93590488	      0.00000000	      0.00000000	     47.27545957	     -3.92168299	     -4.19645359	     80.02997781	      1.39678661	     20.83768996	      0.00000000	      0.00000000	    -17.89297453	     -2.58564584	     -4.64464640	     89.91769273	     -2.02387747	     42.01580298	     44.92824660	     72.69497497	      0.00000000	      0.00000000	     89.94634271	    -13.78445771	     42.09291846	     54.00781139	     68.97118780	      0.00000000	      0.00000000
      4.22000000	     -0.74810956	     -3.00307061	      0.18329681	     -0.38726517	      0.85098872	     -0.99467035	     67.68821439	     -4.10870045	      0.37440916	     38.57418544	      0.67324654	     10.94086426	      0.00000000	      0.00000000	     47.43143438	     -3.89864944	     -4.11794912	     80.11971160	      1.39835276	     20.84411710	      0.00000000	      0.00000000	    -17.81463211	     -2.53571396	     -4.64558823	     89.91719721	     -2.04694188	     41.28684274	     44.78765932	     83.73076061	      0.00000000	      0.00000000	     89.94660440	    -13.77091752	     41.57093403	     53.77798479	     81.37501789	      0.00000000	      0.00000000
      4.22500000	     -0.68715566	     -2.95416466	      0.12923267	     -0.38732243	      0.85069257	     -0.99470821	     67.69391854	     -4.10552398	      0.40435587	     38.66913602	      0.67490374	     10.94407110	      0.00000000	      0.00000000	     47.39827010	     -3.89393406	     -4.18518553	     80.20469178	      1.39983595	     20.89206693	      0.00000000	      0.00000000	    -17.88935144	     -2.58166698	     -4.59721157	     89.91767379	     -2.05514682	     41.17805371	     44.81630055	     84.28235657	      0.00000000	      0.00000000	     89.94672940	    -13.74653173	     41.62962438	     53.82367557	     79.40590416	      0.00000000	      0.00000000
